<svg width="438" height="241" viewBox="0 0 438 241" fill="none" xmlns="http://www.w3.org/2000/svg">
<g filter="url(#filter0_d_7_12)">
<rect x="239.384" y="59.9631" width="154.037" height="154.037" rx="77.0184" fill="#522258"/>
</g>
<path d="M366.358 62.6645C363.499 54.9146 362.07 51.0397 361.942 46.9847C361.814 42.9298 362.995 38.9723 365.359 31.0573L366.563 27.0222L368.244 31.6126C370.9 38.8689 372.228 42.4971 372.414 46.296C372.6 50.095 371.633 53.8356 369.699 61.3167L368.117 67.4345L366.358 62.6645Z" fill="#41693C"/>
<path d="M391.232 77.6918C399.456 76.9214 403.568 76.5362 407.52 77.4546C411.472 78.373 414.993 80.5321 422.034 84.8503L433.502 91.8829L419.614 93.1498C411.918 93.8517 408.071 94.2026 404.352 93.406C400.633 92.6094 397.266 90.7133 390.534 86.9211L376.584 79.064L391.232 77.6918Z" fill="#41693C"/>
<path d="M389.384 38.4225C393.447 31.2309 395.479 27.635 398.489 24.9153C401.5 22.1955 405.283 20.5379 412.848 17.2226L438 6.20143L424.327 30.2634C420.509 36.9816 418.601 40.3408 415.823 42.9392C413.045 45.5376 409.567 47.2186 402.609 50.5805L374.968 63.9369L389.384 38.4225Z" fill="#41693C"/>
<path d="M275.744 155.6V117.2C275.744 109.232 272.864 102.8 268.064 102.8C263.264 102.8 260.384 109.232 260.384 117.2V155.6C260.384 163.568 263.264 170 268.064 170C272.864 170 275.744 163.568 275.744 155.6ZM252.704 155.6V117.2C252.704 108.752 259.136 101.84 268.064 101.84C276.992 101.84 283.424 108.752 283.424 117.2V155.6C283.424 164.048 276.992 170.96 268.064 170.96C259.136 170.96 252.704 164.048 252.704 155.6ZM301.757 129.968V169.04H305.597V170H290.237V169.04H294.077V122.96H290.237V122H301.757V126.512C303.005 124.4 306.461 121.52 310.397 121.52C316.541 121.52 319.037 125.072 319.037 131.6V169.04H322.877V170H307.517V169.04H311.357V127.28C311.357 124.784 310.397 123.056 308.477 123.056C305.789 123.056 301.757 126.608 301.757 129.968Z" fill="#FAEBD1"/>
<path d="M33.504 133.456V161.008C26.688 161.008 24.672 166.96 19.104 166.96C11.136 166.96 4.704 160.048 4.704 151.6V113.2C4.704 104.752 11.136 97.84 19.104 97.84C23.136 97.84 26.016 99.472 28.128 102.256C29.472 102.256 30.624 101.104 30.624 98.8H31.584V113.2H30.624C30.624 104.944 25.728 98.8 20.064 98.8C15.264 98.8 12.384 105.232 12.384 113.2V151.6C12.384 159.568 15.36 166 19.104 166C22.848 166 25.824 159.568 25.824 151.6V133.456H21.984V132.496H37.344V133.456H33.504ZM42.465 153.52V130.48C42.465 121.36 48.609 117.52 54.945 117.52C61.281 117.52 67.425 121.36 67.425 130.48V153.52C67.425 162.64 61.281 166.48 54.945 166.48C48.609 166.48 42.465 162.64 42.465 153.52ZM59.745 153.52V130.48C59.745 121.936 58.113 118.48 54.945 118.48C51.777 118.48 50.145 121.936 50.145 130.48V153.52C50.145 162.064 51.777 165.52 54.945 165.52C58.113 165.52 59.745 162.064 59.745 153.52ZM93.81 158.032V118.96H89.97V118H101.49V165.04H105.33V166H93.81V161.488C92.562 163.6 89.106 166.48 85.17 166.48C79.026 166.48 76.53 162.928 76.53 156.4V118.96H72.69V118H84.21V160.72C84.21 163.216 85.17 164.944 87.09 164.944C89.778 164.944 93.81 161.392 93.81 158.032ZM125.401 123.76C125.401 121.456 127.225 119.536 129.529 119.44C128.761 118.768 127.609 118.48 126.361 118.48C123.289 118.48 120.601 120.976 120.601 124.72V165.04H124.441V166H109.081V165.04H112.921V118.96H109.081V118H120.601V120.976C121.657 119.056 123.673 117.52 127.225 117.52C130.681 117.52 134.041 119.824 134.041 123.76C134.041 126.16 132.121 128.08 129.721 128.08C127.321 128.08 125.401 126.16 125.401 123.76ZM148.351 125.968V165.04H152.191V166H136.831V165.04H140.671V118.96H136.831V118H148.351V122.512C149.599 120.4 153.055 117.52 156.991 117.52C161.695 117.52 164.191 119.632 165.151 123.376C166.783 120.016 170.719 117.52 174.271 117.52C180.415 117.52 182.911 121.072 182.911 127.6V165.04H186.751V166H171.391V165.04H175.231V123.28C175.231 120.784 174.271 119.056 172.351 119.056C169.663 119.056 165.631 122.608 165.631 125.968V165.04H169.471V166H154.111V165.04H157.951V123.28C157.951 120.784 156.991 119.056 155.071 119.056C152.383 119.056 148.351 122.608 148.351 125.968ZM199.676 141.616V157.36C199.676 163.024 202.268 165.52 205.436 165.52C209.276 165.52 215.036 162.736 215.036 153.52V151.312H215.996V153.52C215.996 162.16 211.388 166.48 204.476 166.48C198.14 166.48 191.996 162.64 191.996 153.52V130.48C191.996 121.36 198.14 117.52 204.476 117.52C210.812 117.52 216.956 121.36 216.956 130.48V141.616H199.676ZM199.676 130.48V140.656H209.276V130.48C209.276 121.936 207.644 118.48 204.476 118.48C201.308 118.48 199.676 121.936 199.676 130.48ZM237.403 160.24H238.363C238.363 163.696 235.579 166.48 232.123 166.48C228.667 166.48 225.883 163.696 225.883 160.24V118.96H221.083V118H225.883V111.568L233.563 106.48V118H239.323V118.96H233.563V160.24C233.563 162.064 234.427 163.504 235.483 163.504C236.539 163.504 237.403 162.064 237.403 160.24Z" fill="#F8EBD1"/>
<defs>
<filter id="filter0_d_7_12" x="222.384" y="52.9631" width="188.037" height="188.037" filterUnits="userSpaceOnUse" color-interpolation-filters="sRGB">
<feFlood flood-opacity="0" result="BackgroundImageFix"/>
<feColorMatrix in="SourceAlpha" type="matrix" values="0 0 0 0 0 0 0 0 0 0 0 0 0 0 0 0 0 0 127 0" result="hardAlpha"/>
<feMorphology radius="2" operator="dilate" in="SourceAlpha" result="effect1_dropShadow_7_12"/>
<feOffset dy="10"/>
<feGaussianBlur stdDeviation="7.5"/>
<feComposite in2="hardAlpha" operator="out"/>
<feColorMatrix type="matrix" values="0 0 0 0 0.886275 0 0 0 0 0.431373 0 0 0 0 0.529412 0 0 0 0.2 0"/>
<feBlend mode="normal" in2="BackgroundImageFix" result="effect1_dropShadow_7_12"/>
<feBlend mode="normal" in="SourceGraphic" in2="effect1_dropShadow_7_12" result="shape"/>
</filter>
</defs>
</svg>
